# xmcd
#
# Track frame offsets:
#	150
#	12570
#	27733
#	41024
#	55331
#	66308
#	79401
#	94290
#	106062
#	121350
#
# Disc length: 1853 seconds
#
# Revision: 1
# Processed by: cddbd v1.5.2PL0 Copyright (c) Steve Scherf et al.
# Submitted via: audiograbber 1.83.01
#
DISCID=8d073b0a
DTITLE=Glen Campbell - Glen Travis Campbell 
DYEAR=1972
DGENRE=Country
TTITLE0=I Will Never Pass This Way Again
TTITLE1=One Last Time
TTITLE2=Sweet Fantasy
TTITLE3=She Thinks I Still Care
TTITLE4=Running Scared
TTITLE5=Someone to Give My Love To
TTITLE6=All My Tomorrows
TTITLE7=My Cricket
TTITLE8=Just for What I Am
TTITLE9=Last Thing on My Mind
EXTD=
EXTT0=
EXTT1=
EXTT2=
EXTT3=
EXTT4=
EXTT5=
EXTT6=
EXTT7=
EXTT8=
EXTT9=
PLAYORDER=
